<svg xmlns="http://www.w3.org/2000/svg" width="512" height="512" viewBox="0 0 512 512">
  <defs>
    <linearGradient id="bgGrad" x1="0%" y1="0%" x2="100%" y2="100%">
      <stop offset="0%" style="stop-color:#6366f1"/>
      <stop offset="100%" style="stop-color:#4f46e5"/>
    </linearGradient>
  </defs>
  
  <!-- Background - full bleed for maskable -->
  <rect width="512" height="512" fill="url(#bgGrad)"/>
  
  <!-- Running person - scaled down for safe zone -->
  <g transform="translate(256, 265) scale(0.8)">
    <!-- Head -->
    <circle cx="-20" cy="-100" r="40" fill="white"/>
    
    <!-- Body -->
    <path d="M-20 -60 Q-30 0 -50 50" stroke="white" stroke-width="28" stroke-linecap="round" fill="none"/>
    
    <!-- Back arm (behind) -->
    <path d="M-35 -30 Q-80 -10 -110 -50" stroke="white" stroke-width="24" stroke-linecap="round" fill="none"/>
    
    <!-- Front arm -->
    <path d="M-10 -30 Q40 -60 70 -90" stroke="white" stroke-width="24" stroke-linecap="round" fill="none"/>
    
    <!-- Back leg -->
    <path d="M-50 50 Q-100 80 -120 130" stroke="white" stroke-width="26" stroke-linecap="round" fill="none"/>
    
    <!-- Front leg (extended forward) -->
    <path d="M-50 50 Q20 70 80 110" stroke="white" stroke-width="26" stroke-linecap="round" fill="none"/>
  </g>
  
  <!-- Motion lines -->
  <g stroke="white" stroke-width="4" stroke-linecap="round" opacity="0.4">
    <line x1="100" y1="200" x2="135" y2="200"/>
    <line x1="90" y1="235" x2="140" y2="235"/>
    <line x1="100" y1="270" x2="135" y2="270"/>
  </g>
  
  <!-- Success checkmark badge -->
  <g transform="translate(375, 130)">
    <circle cx="0" cy="0" r="38" fill="#22c55e"/>
    <path d="M-15 0 L-5 10 L15 -10" stroke="white" stroke-width="7" stroke-linecap="round" stroke-linejoin="round" fill="none"/>
  </g>
</svg>
